<svg width="64" height="64" viewBox="0 0 64 64" fill="none" xmlns="http://www.w3.org/2000/svg">
<rect x="0.5" y="0.5" width="63" height="63" fill="#232323"/>
<rect x="0.5" y="0.5" width="63" height="63" stroke="#393939"/>
<path d="M43.625 31.875C43.625 27.7578 41.3848 23.9434 37.8125 21.8242C34.1797 19.7656 29.7598 19.7656 26.1875 21.8242C22.5547 23.9434 20.375 27.7578 20.375 31.875C20.375 36.0527 22.5547 39.8672 26.1875 41.9863C29.7598 44.0449 34.1797 44.0449 37.8125 41.9863C41.3848 39.8672 43.625 36.0527 43.625 31.875ZM16.5 31.875C16.5 26.3652 19.4062 21.2793 24.25 18.4941C29.0332 15.709 34.9062 15.709 39.75 18.4941C44.5332 21.2793 47.5 26.3652 47.5 31.875C47.5 37.4453 44.5332 42.5312 39.75 45.3164C34.9062 48.1016 29.0332 48.1016 24.25 45.3164C19.4062 42.5312 16.5 37.4453 16.5 31.875ZM32 36.7188C33.6953 36.7188 35.2695 35.8105 36.1777 34.2969C37.0254 32.8438 37.0254 30.9668 36.1777 29.4531C35.2695 28 33.6953 27.0312 32 27.0312C30.2441 27.0312 28.6699 28 27.7617 29.4531C26.9141 30.9668 26.9141 32.8438 27.7617 34.2969C28.6699 35.8105 30.2441 36.7188 32 36.7188ZM32 23.1562C35.0879 23.1562 37.9336 24.8516 39.5078 27.5156C41.082 30.2402 41.082 33.5703 39.5078 36.2344C37.9336 38.959 35.0879 40.5938 32 40.5938C28.8516 40.5938 26.0059 38.959 24.4316 36.2344C22.8574 33.5703 22.8574 30.2402 24.4316 27.5156C26.0059 24.8516 28.8516 23.1562 32 23.1562ZM30.0625 31.875C30.0625 30.8457 30.9102 29.9375 32 29.9375C33.0293 29.9375 33.9375 30.8457 33.9375 31.875C33.9375 32.9648 33.0293 33.8125 32 33.8125C30.9102 33.8125 30.0625 32.9648 30.0625 31.875Z" fill="#F97316"/>
</svg>
