<svg width="300" height="300" viewBox="0 0 300 300" fill="none" xmlns="http://www.w3.org/2000/svg">
<rect width="300" height="300" rx="150" fill="#F36523"/>
<path d="M150 57.7188C201.953 57.7188 242.031 95.9414 242.031 147.152C242.031 212.094 180.059 248.461 123.281 232.875C119.941 232.133 119.57 232.875 100.273 241.41C97.6758 242.152 95.0781 242.152 93.2227 240.668C90.9961 239.555 89.8828 237.328 89.8828 234.73C89.1406 217.66 89.8828 216.176 86.9141 213.207C68.7305 197.25 57.9688 173.871 57.9688 147.152C57.9688 95.9414 98.0469 57.7188 150 57.7188ZM205.293 126.742C207.891 122.66 203.066 117.836 198.984 120.805L170.039 142.699C167.812 144.184 165.215 144.184 163.359 142.699L141.836 126.742C138.496 124.516 134.785 123.402 131.074 124.145C126.992 124.887 123.652 127.113 121.797 130.453L94.707 173.129C92.1094 177.211 96.9336 182.035 101.016 179.066L129.961 157.172C132.188 155.688 134.785 155.688 136.641 157.172L158.164 173.129C161.504 175.355 165.215 176.469 169.297 175.727C173.008 174.984 176.348 172.758 178.203 169.418L205.293 126.742Z" fill="white"/>
</svg>
